# xmcd
#
# Track frame offsets:
#	150
#	18147
#	35616
#	52938
#	69259
#	83339
#	99934
#	116863
#	135057
#	154119
#
# Disc length: 2587 seconds
#
# Revision: 4
# Processed by: cddbd v1.5.2PL0 Copyright (c) Steve Scherf et al.
# Submitted via: EasyCDDAExtractor 15.3.0.1
#
DISCID=660a190a
DTITLE=Yaire
DYEAR=2001
DGENRE=Latin
TTITLE0=Contestame
TTITLE1=Mas Alla De Dos Cuerpos
TTITLE2=Que Haria Sin Ti
TTITLE3=Como Te Amo
TTITLE4=Gracias A Tu Amor
TTITLE5=Medida Exacta
TTITLE6=Sin Limites
TTITLE7=Tu Mayor Tentacion
TTITLE8=Soledad
TTITLE9=Melodia De Llanto
EXTD=
EXTT0=
EXTT1=
EXTT2=
EXTT3=
EXTT4=
EXTT5=
EXTT6=
EXTT7=
EXTT8=
EXTT9=
PLAYORDER=
